<svg width="480" height="46" viewBox="0 0 480 46" fill="none" xmlns="http://www.w3.org/2000/svg">
<g clip-path="url(#clip0_3048_36585)">
<rect width="480" height="46" fill="white"/>
<path d="M0 9.76953H480" stroke="black" stroke-width="0.8"/>
<path d="M0 21.6211H480" stroke="black" stroke-width="0.8"/>
<path d="M0 33.4727H480" stroke="black" stroke-width="0.8"/>
<path d="M0 45.3262H480" stroke="black" stroke-width="0.8"/>
<path d="M0 15.6019V3.98151C0 2.77784 0.354963 1.81339 1.06489 1.088C1.7747 0.362667 2.70062 0 3.84261 0C4.49073 0 4.99994 0.185245 5.37031 0.555615C5.74068 0.925986 5.92593 1.41979 5.92593 2.0371V8.42602L5.55556 8.10187C5.30862 7.88587 4.94596 7.66216 4.46756 7.43064C3.98921 7.19911 3.47224 7.08338 2.91674 7.08338C2.23763 7.08338 1.6435 7.34572 1.13422 7.87046C0.625007 8.39514 0.37037 9.02779 0.37037 9.76853C0.37037 10.5093 0.625007 11.1497 1.13422 11.6899C1.6435 12.23 2.23763 12.5001 2.91674 12.5001C3.47224 12.5001 3.98921 12.3921 4.46756 12.1761C4.94596 11.96 5.30862 11.7439 5.55556 11.5279L5.92593 11.1575V17.5927C5.92593 18.1791 5.74074 18.6652 5.37037 19.051C5 19.4368 4.49073 19.6297 3.84267 19.6297C2.70062 19.6297 1.7747 19.2593 1.06483 18.5186C0.354963 17.7778 0 16.8057 0 15.6018V15.6019Z" fill="black"/>
<path d="M20.7403 23.9395C22.7156 23.9395 23.7033 24.5104 23.7033 25.6524V31.2542C23.0551 30.6062 22.0675 30.2821 20.7403 30.2821C19.4131 30.2821 18.4255 30.6062 17.7773 31.2543V25.6524C17.7773 24.5105 18.765 23.9395 20.7403 23.9395Z" fill="black"/>
<path d="M38.7434 21.623H37.9434V36.7998H38.7434V21.623Z" fill="black"/>
<path d="M40.9063 18.0137C42.8816 18.0137 43.8693 18.5846 43.8693 19.7266V25.3284C43.2211 24.6804 42.2335 24.3563 40.9063 24.3563C39.5792 24.3563 38.5915 24.6805 37.9434 25.3285V19.7266C37.9434 18.5847 38.931 18.0137 40.9063 18.0137Z" fill="black"/>
<path d="M46.8321 23.9395C48.8074 23.9395 49.7951 24.5104 49.7951 25.6524V31.2542C49.1469 30.6062 48.1593 30.2821 46.8321 30.2821C45.5049 30.2821 44.5173 30.6062 43.8691 31.2543V25.6524C43.8691 24.5105 44.8568 23.9395 46.8321 23.9395Z" fill="black"/>
<path d="M66.7203 25.7531C68.0475 25.7531 68.7728 25.7376 68.8963 25.7068C69.2357 25.6141 69.4055 25.398 69.4055 25.0586H69.9611V30.8456C69.9611 30.9999 69.8839 31.0925 69.7296 31.1234C69.4209 31.1542 68.4641 31.1696 66.8592 31.1696C65.4395 31.1696 64.5754 31.1542 64.2666 31.1234C64.1123 31.1234 64.0352 31.0463 64.0352 30.892V26.0308C64.0352 25.8147 64.1123 25.7068 64.2666 25.7068H64.4055C64.5598 25.7376 65.3315 25.753 66.7204 25.753L66.7203 25.7531Z" fill="black"/>
<path d="M69.9611 9.76953H69.1611V27.5473H69.9611V9.76953Z" fill="black"/>
<path d="M67.2291 5.99029C68.0316 5.99029 68.6875 6.13684 69.1967 6.43C69.7059 6.72333 69.9606 7.16303 69.9606 7.74952V13.4439H69.405C69.405 12.7957 69.2507 12.3097 68.9421 11.9856C68.6334 11.6615 68.0625 11.4994 67.2291 11.4995C66.1488 11.4995 65.2538 11.7464 64.5439 12.2402V7.74946C64.5439 6.57672 65.439 5.99029 67.2291 5.99029Z" fill="black"/>
<path d="M87.1632 6.16211C89.1384 6.16211 90.1261 6.73307 90.1261 7.87506V13.4768C89.4779 12.8288 88.4903 12.5047 87.1632 12.5047C85.836 12.5047 84.8483 12.8289 84.2002 13.477V7.87506C84.2002 6.73313 85.1879 6.16211 87.1632 6.16211Z" fill="black"/>
<path d="M107.329 6.16211C109.304 6.16211 110.292 6.73307 110.292 7.87506V13.4768C109.644 12.8288 108.656 12.5047 107.329 12.5047C106.002 12.5047 105.014 12.8289 104.366 13.477V7.87506C104.366 6.73313 105.354 6.16211 107.329 6.16211Z" fill="black"/>
<path d="M125.332 9.77148H124.532V24.9483H125.332V9.77148Z" fill="black"/>
<path d="M127.495 6.16211C129.47 6.16211 130.458 6.73307 130.458 7.87506V13.4768C129.81 12.8288 128.822 12.5047 127.495 12.5047C126.168 12.5047 125.18 12.8289 124.532 13.477V7.87506C124.532 6.73313 125.52 6.16211 127.495 6.16211Z" fill="black"/>
<path d="M133.421 12.0879C135.396 12.0879 136.384 12.6589 136.384 13.8008V19.4026C135.736 18.7546 134.748 18.4305 133.421 18.4305C132.094 18.4305 131.106 18.7547 130.458 19.4027V13.8008C130.458 12.6589 131.446 12.0879 133.421 12.0879Z" fill="black"/>
<path d="M153.309 7.97577C154.636 7.97577 155.362 7.96024 155.485 7.92943C155.825 7.83681 155.994 7.62069 155.994 7.28125H156.55V13.0683C156.55 13.2226 156.473 13.3152 156.318 13.3461C156.01 13.3769 155.053 13.3923 153.448 13.3923C152.028 13.3923 151.164 13.3769 150.855 13.3461C150.701 13.3461 150.624 13.2689 150.624 13.1146V8.25346C150.624 8.0374 150.701 7.92943 150.855 7.92943H150.994C151.149 7.96024 151.92 7.97565 153.309 7.97565L153.309 7.97577Z" fill="black"/>
<path d="M153.818 0.0645124C154.62 0.0645124 155.276 0.21106 155.786 0.504216C156.295 0.797549 156.549 1.23725 156.549 1.82374V7.51814H155.994C155.994 6.86996 155.84 6.38392 155.531 6.05977C155.222 5.73574 154.651 5.57367 153.818 5.57373C152.738 5.57373 151.843 5.8206 151.133 6.31447V1.82368C151.133 0.650942 152.028 0.0645124 153.818 0.0645124Z" fill="black"/>
<path d="M173.752 0.234375C175.727 0.234375 176.715 0.805338 176.715 1.94732V7.5491C176.067 6.9011 175.079 6.57701 173.752 6.57701C172.425 6.57701 171.437 6.90116 170.789 7.54922V1.94732C170.789 0.805397 171.777 0.234375 173.752 0.234375Z" fill="black"/>
<path d="M193.64 7.97577C194.967 7.97577 195.693 7.96024 195.816 7.92943C196.156 7.83681 196.325 7.62069 196.325 7.28125H196.881V13.0683C196.881 13.2226 196.804 13.3152 196.65 13.3461C196.341 13.3769 195.384 13.3923 193.779 13.3923C192.359 13.3923 191.495 13.3769 191.187 13.3461C191.032 13.3461 190.955 13.2689 190.955 13.1146V8.25346C190.955 8.0374 191.032 7.92943 191.187 7.92943H191.325C191.48 7.96024 192.251 7.97565 193.64 7.97565L193.64 7.97577Z" fill="black"/>
<path d="M194.149 0.0645124C194.952 0.0645124 195.607 0.21106 196.117 0.504216C196.626 0.797549 196.881 1.23725 196.881 1.82374V7.51814H196.325C196.325 6.86996 196.171 6.38392 195.862 6.05977C195.553 5.73574 194.982 5.57367 194.149 5.57373C193.069 5.57373 192.174 5.8206 191.464 6.31447V1.82368C191.464 0.650942 192.359 0.0645124 194.149 0.0645124Z" fill="black"/>
<path d="M214.083 6.16211C216.058 6.16211 217.046 6.73307 217.046 7.87506V13.4768C216.398 12.8288 215.41 12.5047 214.083 12.5047C212.756 12.5047 211.768 12.8289 211.12 13.477V7.87506C211.12 6.73313 212.108 6.16211 214.083 6.16211Z" fill="black"/>
<path d="M214.087 7.25C214.655 7.26221 215.28 7.28141 215.744 7.65427C216.038 7.88538 216.023 8.29379 216.015 8.63098V11.6697C215.392 11.376 214.514 11.3171 214.093 11.3134C213.635 11.327 212.795 11.3688 212.16 11.5904C212.162 10.4528 212.155 9.31513 212.164 8.17764C212.197 7.7332 212.628 7.44698 213.03 7.36141C213.375 7.27264 213.733 7.25119 214.087 7.25Z" fill="white"/>
<path d="M234.249 6.16211C236.224 6.16211 237.212 6.73307 237.212 7.87506V13.4768C236.564 12.8288 235.576 12.5047 234.249 12.5047C232.922 12.5047 231.934 12.8289 231.286 13.477V7.87506C231.286 6.73313 232.274 6.16211 234.249 6.16211Z" fill="black"/>
<path d="M240.144 3.9043C240.556 3.9043 240.902 4.03988 241.181 4.31218C241.459 4.58459 241.597 4.91739 241.597 5.3107C241.597 5.70418 241.459 6.04267 241.181 6.3251C240.902 6.60759 240.556 6.74874 240.144 6.74874C239.773 6.74874 239.448 6.60753 239.17 6.32504C238.891 6.04273 238.753 5.70424 238.753 5.31082C238.753 4.91745 238.891 4.58459 239.17 4.3123C239.448 4.03982 239.773 3.9043 240.144 3.9043Z" fill="black"/>
<path d="M255.926 9.76953H255.126V45.3251H255.926V9.76953Z" fill="black"/>
<path d="M272.417 6.16211C274.392 6.16211 275.38 6.73307 275.38 7.87506V13.4768C274.732 12.8288 273.744 12.5047 272.417 12.5047C271.09 12.5047 270.102 12.8289 269.454 13.477V7.87506C269.454 6.73313 270.442 6.16211 272.417 6.16211Z" fill="black"/>
<path d="M292.583 6.16211C294.558 6.16211 295.546 6.73307 295.546 7.87506V13.4768C294.898 12.8288 293.91 12.5047 292.583 12.5047C291.256 12.5047 290.268 12.8289 289.62 13.477V7.87506C289.62 6.73313 290.608 6.16211 292.583 6.16211Z" fill="black"/>
<path d="M312.749 6.16211C314.724 6.16211 315.712 6.73307 315.712 7.87506V13.4768C315.064 12.8288 314.076 12.5047 312.749 12.5047C311.422 12.5047 310.434 12.8289 309.786 13.477V7.87506C309.786 6.73313 310.774 6.16211 312.749 6.16211Z" fill="black"/>
<path d="M332.914 6.16211C334.889 6.16211 335.877 6.73307 335.877 7.87506V13.4768C335.229 12.8288 334.241 12.5047 332.914 12.5047C331.587 12.5047 330.599 12.8289 329.951 13.477V7.87506C329.951 6.73313 330.939 6.16211 332.914 6.16211Z" fill="black"/>
<path d="M353.08 6.16211C355.055 6.16211 356.043 6.73307 356.043 7.87506V13.4768C355.395 12.8288 354.407 12.5047 353.08 12.5047C351.753 12.5047 350.765 12.8289 350.117 13.477V7.87506C350.117 6.73313 351.105 6.16211 353.08 6.16211Z" fill="black"/>
<path d="M373.246 12.0879C375.221 12.0879 376.209 12.6589 376.209 13.8008V19.4026C375.561 18.7546 374.573 18.4305 373.246 18.4305C371.919 18.4305 370.931 18.7547 370.283 19.4027V13.8008C370.283 12.6589 371.271 12.0879 373.246 12.0879Z" fill="black"/>
<path d="M393.411 6.16211C395.386 6.16211 396.374 6.73307 396.374 7.87506V13.4768C395.726 12.8288 394.738 12.5047 393.411 12.5047C392.084 12.5047 391.096 12.8289 390.448 13.477V7.87506C390.448 6.73313 391.436 6.16211 393.411 6.16211Z" fill="black"/>
<path d="M413.577 18.0137C415.553 18.0137 416.54 18.5846 416.54 19.7266V25.3284C415.892 24.6804 414.904 24.3563 413.577 24.3563C412.25 24.3563 411.262 24.6805 410.614 25.3285V19.7266C410.614 18.5847 411.602 18.0137 413.577 18.0137Z" fill="black"/>
<path d="M433.742 23.9395C435.718 23.9395 436.705 24.5104 436.705 25.6524V31.2542C436.057 30.6062 435.069 30.2821 433.742 30.2821C432.415 30.2821 431.427 30.6062 430.779 31.2543V25.6524C430.779 24.5105 431.767 23.9395 433.742 23.9395Z" fill="black"/>
<path d="M433.747 25.0273C434.315 25.0396 434.939 25.0588 435.403 25.4316C435.697 25.6627 435.682 26.0711 435.674 26.4083V29.447C435.051 29.1533 434.173 29.0944 433.752 29.0908C433.294 29.1044 432.454 29.1462 431.819 29.3677C431.821 28.2301 431.814 27.0925 431.823 25.955C431.856 25.5105 432.287 25.2243 432.689 25.1388C433.034 25.05 433.392 25.0285 433.747 25.0273Z" fill="white"/>
<path d="M453.908 23.9395C455.884 23.9395 456.871 24.5104 456.871 25.6524V31.2542C456.223 30.6062 455.235 30.2821 453.908 30.2821C452.581 30.2821 451.593 30.6062 450.945 31.2543V25.6524C450.945 24.5105 451.933 23.9395 453.908 23.9395Z" fill="black"/>
<path d="M459.803 26.127C460.216 26.127 460.562 26.2625 460.84 26.5348C461.118 26.8072 461.257 27.14 461.257 27.5334C461.257 27.9268 461.118 28.2653 460.84 28.5478C460.561 28.8302 460.216 28.9714 459.803 28.9714C459.432 28.9714 459.107 28.8302 458.829 28.5477C458.551 28.2654 458.412 27.9269 458.412 27.5335C458.412 27.1401 458.551 26.8072 458.829 26.535C459.107 26.2625 459.432 26.127 459.803 26.127Z" fill="black"/>
<path d="M474.874 9.76953H474.074V45.3251H474.874V9.76953Z" fill="black"/>
<path d="M480 9.76953H479.2V45.3251H480V9.76953Z" fill="black"/>
</g>
<defs>
<clipPath id="clip0_3048_36585">
<rect width="480" height="46" fill="white"/>
</clipPath>
</defs>
</svg>
