<svg width="480" height="45" viewBox="0 0 480 45" fill="none" xmlns="http://www.w3.org/2000/svg">
<g clip-path="url(#clip0_3048_36736)">
<rect width="480" height="44.5547" transform="translate(0 0.445312)" fill="white"/>
<path d="M0 5.37109H480" stroke="black" stroke-width="0.8"/>
<path d="M0 17.2227H480" stroke="black" stroke-width="0.8"/>
<path d="M0 29.0742H480" stroke="black" stroke-width="0.8"/>
<path d="M0 40.9277H480" stroke="black" stroke-width="0.8"/>
<path d="M5.04634 15.3274V26.8089C5.04634 27.3644 4.95378 27.6576 4.76859 27.6885C4.67591 27.6885 4.61422 27.6577 4.58335 27.5959C4.55253 27.5343 4.53701 27.4416 4.53713 27.3182V20.5588C4.0432 20.065 3.36421 19.8181 2.50003 19.8181C1.45055 19.8181 0.617363 20.0496 0 20.5126V15.3274C0 14.2471 0.841067 13.707 2.52314 13.707C4.20521 13.707 5.04634 14.2472 5.04634 15.3274ZM5.83342 22.7348V11.7626C5.83342 10.6207 6.17298 9.69468 6.85191 8.98481C7.5309 8.27488 8.42596 7.91992 9.53713 7.91992C10.1852 7.91992 10.6713 8.0897 10.9955 8.4292C11.3195 8.76875 11.4815 9.23169 11.4815 9.81806V15.9292L11.1574 15.6515C10.9414 15.4354 10.6019 15.2193 10.139 15.0032C9.67597 14.7872 9.19757 14.6792 8.7037 14.6792C7.9939 14.6792 7.39976 14.9261 6.92136 15.4199C6.44296 15.9138 6.20373 16.5079 6.20373 17.2024C6.20373 17.8968 6.44296 18.5064 6.92136 19.031C7.39976 19.5557 7.99396 19.818 8.70376 19.818C9.19757 19.818 9.67597 19.71 10.139 19.494C10.6018 19.278 10.9414 19.0774 11.1575 18.8921L11.4816 18.5681V24.6791C11.4816 25.2655 11.3118 25.7363 10.9723 26.0912C10.6328 26.4461 10.1544 26.6236 9.53707 26.6236C8.42596 26.6236 7.53096 26.2609 6.85203 25.5356C6.17292 24.8102 5.83336 23.8767 5.83336 22.7347L5.83342 22.7348Z" fill="black"/>
<path d="M26.296 31.3926C28.2713 31.3926 29.2589 31.9635 29.2589 33.1055V38.7073C28.6108 38.0593 27.6231 37.7352 26.296 37.7352C24.9688 37.7352 23.9811 38.0594 23.333 38.7074V33.1055C23.333 31.9636 24.3207 31.3926 26.296 31.3926Z" fill="black"/>
<path d="M44.0461 29.0742H43.2461V44.251H44.0461V29.0742Z" fill="black"/>
<path d="M46.2091 25.4648C48.1843 25.4648 49.172 26.0358 49.172 27.1778V32.7796C48.5238 32.1316 47.5362 31.8075 46.2091 31.8075C44.8819 31.8075 43.8942 32.1316 43.2461 32.7797V27.1778C43.2461 26.0359 44.2338 25.4648 46.2091 25.4648Z" fill="black"/>
<path d="M52.1348 31.3906C54.1101 31.3906 55.0978 31.9616 55.0978 33.1036V38.7054C54.4496 38.0574 53.462 37.7333 52.1348 37.7333C50.8077 37.7333 49.82 38.0574 49.1719 38.7055V33.1036C49.1719 31.9616 50.1595 31.3906 52.1348 31.3906Z" fill="black"/>
<path d="M71.7711 33.2062C73.0983 33.2062 73.8236 33.1907 73.9471 33.1599C74.2865 33.0673 74.4563 32.8512 74.4563 32.5117H75.0119V38.2987C75.0119 38.4531 74.9347 38.5457 74.7804 38.5765C74.4717 38.6074 73.5149 38.6228 71.91 38.6228C70.4903 38.6228 69.6261 38.6074 69.3174 38.5765C69.1631 38.5765 69.0859 38.4994 69.0859 38.3451V33.4839C69.0859 33.2679 69.1631 33.1599 69.3174 33.1599H69.4563C69.6106 33.1907 70.3822 33.2061 71.7712 33.2061L71.7711 33.2062Z" fill="black"/>
<path d="M75.0119 17.2227H74.2119V35.0004H75.0119V17.2227Z" fill="black"/>
<path d="M72.2799 13.4434C73.0824 13.4434 73.7383 13.59 74.2475 13.8831C74.7567 14.1765 75.0114 14.6162 75.0114 15.2026V20.897H74.4558C74.4558 20.2489 74.3015 19.7628 73.9929 19.4387C73.6841 19.1146 73.1132 18.9526 72.2799 18.9526C71.1996 18.9526 70.3046 19.1995 69.5947 19.6934V15.2026C69.5947 14.0298 70.4898 13.4434 72.2799 13.4434Z" fill="black"/>
<path d="M91.962 13.6133C93.9373 13.6133 94.9249 14.1842 94.9249 15.3262V20.928C94.2768 20.28 93.2892 19.9559 91.962 19.9559C90.6348 19.9559 89.6471 20.2801 88.999 20.9281V15.3262C88.999 14.1843 89.9867 13.6133 91.962 13.6133Z" fill="black"/>
<path d="M111.875 13.6133C113.85 13.6133 114.838 14.1842 114.838 15.3262V20.928C114.19 20.28 113.202 19.9559 111.875 19.9559C110.548 19.9559 109.56 20.2801 108.912 20.9281V15.3262C108.912 14.1843 109.9 13.6133 111.875 13.6133Z" fill="black"/>
<path d="M129.625 17.2227H128.825V32.3994H129.625V17.2227Z" fill="black"/>
<path d="M131.788 13.6133C133.763 13.6133 134.751 14.1842 134.751 15.3262V20.928C134.103 20.28 133.115 19.9559 131.788 19.9559C130.461 19.9559 129.473 20.2801 128.825 20.9281V15.3262C128.825 14.1843 129.813 13.6133 131.788 13.6133Z" fill="black"/>
<path d="M137.714 19.5391C139.689 19.5391 140.677 20.11 140.677 21.252V26.8538C140.029 26.2058 139.041 25.8817 137.714 25.8817C136.387 25.8817 135.399 26.2058 134.751 26.8539V21.252C134.751 20.1101 135.739 19.5391 137.714 19.5391Z" fill="black"/>
<path d="M157.349 15.4289C158.676 15.4289 159.402 15.4134 159.525 15.3826C159.865 15.2899 160.034 15.0738 160.034 14.7344H160.59V20.5214C160.59 20.6757 160.513 20.7683 160.359 20.7992C160.05 20.83 159.093 20.8454 157.488 20.8454C156.068 20.8454 155.204 20.83 154.896 20.7992C154.741 20.7992 154.664 20.722 154.664 20.5677V15.7066C154.664 15.4905 154.741 15.3826 154.896 15.3826H155.034C155.189 15.4134 155.96 15.4288 157.349 15.4288L157.349 15.4289Z" fill="black"/>
<path d="M157.858 7.51764C158.66 7.51764 159.316 7.66419 159.826 7.95734C160.335 8.25067 160.59 8.69038 160.59 9.27687V14.9713H160.034C160.034 14.3231 159.88 13.837 159.571 13.5129C159.262 13.1889 158.691 13.0268 157.858 13.0269C156.778 13.0269 155.883 13.2737 155.173 13.7676V9.27681C155.173 8.10407 156.068 7.51764 157.858 7.51764Z" fill="black"/>
<path d="M177.54 7.6875C179.515 7.6875 180.503 8.25846 180.503 9.40045V15.0022C179.855 14.3542 178.867 14.0301 177.54 14.0301C176.213 14.0301 175.225 14.3543 174.577 15.0023V9.40045C174.577 8.25852 175.565 7.6875 177.54 7.6875Z" fill="black"/>
<path d="M197.175 15.4289C198.503 15.4289 199.228 15.4134 199.351 15.3826C199.691 15.2899 199.861 15.0738 199.861 14.7344H200.416V20.5214C200.416 20.6757 200.339 20.7683 200.185 20.7992C199.876 20.83 198.919 20.8454 197.314 20.8454C195.895 20.8454 195.03 20.83 194.722 20.7992C194.567 20.7992 194.49 20.722 194.49 20.5677V15.7066C194.49 15.4905 194.567 15.3826 194.722 15.3826H194.861C195.015 15.4134 195.787 15.4288 197.175 15.4288L197.175 15.4289Z" fill="black"/>
<path d="M197.684 7.51764C198.487 7.51764 199.143 7.66419 199.652 7.95734C200.161 8.25067 200.416 8.69038 200.416 9.27687V14.9713H199.86C199.86 14.3231 199.706 13.837 199.397 13.5129C199.088 13.1889 198.518 13.0268 197.684 13.0269C196.604 13.0269 195.709 13.2737 194.999 13.7676V9.27681C194.999 8.10407 195.894 7.51764 197.684 7.51764Z" fill="black"/>
<path d="M217.366 13.6133C219.342 13.6133 220.329 14.1842 220.329 15.3262V20.928C219.681 20.28 218.693 19.9559 217.366 19.9559C216.039 19.9559 215.051 20.2801 214.403 20.9281V15.3262C214.403 14.1843 215.391 13.6133 217.366 13.6133Z" fill="black"/>
<path d="M217.371 14.7012C217.939 14.7134 218.563 14.7326 219.027 15.1054C219.321 15.3365 219.306 15.745 219.298 16.0821V19.1208C218.675 18.8272 217.797 18.7683 217.376 18.7646C216.918 18.7782 216.078 18.82 215.443 19.0416C215.445 17.904 215.438 16.7663 215.447 15.6288C215.48 15.1844 215.911 14.8981 216.313 14.8126C216.658 14.7238 217.016 14.7024 217.371 14.7012Z" fill="white"/>
<path d="M237.279 13.6133C239.255 13.6133 240.242 14.1842 240.242 15.3262V20.928C239.594 20.28 238.607 19.9559 237.279 19.9559C235.952 19.9559 234.965 20.2801 234.316 20.9281V15.3262C234.316 14.1843 235.304 13.6133 237.279 13.6133Z" fill="black"/>
<path d="M243.174 11.3555C243.587 11.3555 243.933 11.4911 244.211 11.7634C244.489 12.0358 244.628 12.3686 244.628 12.7619C244.628 13.1554 244.489 13.4938 244.211 13.7763C243.933 14.0588 243.587 14.1999 243.174 14.1999C242.803 14.1999 242.478 14.0587 242.2 13.7762C241.922 13.4939 241.783 13.1554 241.783 12.762C241.783 12.3686 241.922 12.0358 242.2 11.7635C242.478 11.491 242.803 11.3555 243.174 11.3555Z" fill="black"/>
<path d="M258.703 5.37109H257.903V40.9266H258.703V5.37109Z" fill="black"/>
<path d="M274.942 13.6133C276.918 13.6133 277.905 14.1842 277.905 15.3262V20.928C277.257 20.28 276.27 19.9559 274.942 19.9559C273.615 19.9559 272.628 20.2801 271.979 20.9281V15.3262C271.979 14.1843 272.967 13.6133 274.942 13.6133Z" fill="black"/>
<path d="M294.856 13.6133C296.831 13.6133 297.819 14.1842 297.819 15.3262V20.928C297.17 20.28 296.183 19.9559 294.856 19.9559C293.528 19.9559 292.541 20.2801 291.893 20.9281V15.3262C291.893 14.1843 292.88 13.6133 294.856 13.6133Z" fill="black"/>
<path d="M314.769 13.6133C316.744 13.6133 317.732 14.1842 317.732 15.3262V20.928C317.083 20.28 316.096 19.9559 314.769 19.9559C313.441 19.9559 312.454 20.2801 311.806 20.9281V15.3262C311.806 14.1843 312.793 13.6133 314.769 13.6133Z" fill="black"/>
<path d="M334.682 13.6133C336.657 13.6133 337.645 14.1842 337.645 15.3262V20.928C336.996 20.28 336.009 19.9559 334.682 19.9559C333.355 19.9559 332.367 20.2801 331.719 20.9281V15.3262C331.719 14.1843 332.706 13.6133 334.682 13.6133Z" fill="black"/>
<path d="M354.596 13.6133C356.571 13.6133 357.559 14.1842 357.559 15.3262V20.928C356.911 20.28 355.923 19.9559 354.596 19.9559C353.269 19.9559 352.281 20.2801 351.633 20.9281V15.3262C351.633 14.1843 352.62 13.6133 354.596 13.6133Z" fill="black"/>
<path d="M374.509 13.6133C376.484 13.6133 377.472 14.1842 377.472 15.3262V20.928C376.824 20.28 375.836 19.9559 374.509 19.9559C373.182 19.9559 372.194 20.2801 371.546 20.9281V15.3262C371.546 14.1843 372.534 13.6133 374.509 13.6133Z" fill="black"/>
<path d="M394.422 19.5391C396.397 19.5391 397.385 20.11 397.385 21.252V26.8538C396.737 26.2058 395.749 25.8817 394.422 25.8817C393.095 25.8817 392.107 26.2058 391.459 26.8539V21.252C391.459 20.1101 392.447 19.5391 394.422 19.5391Z" fill="black"/>
<path d="M414.335 31.3926C416.31 31.3926 417.298 31.9635 417.298 33.1055V38.7073C416.65 38.0593 415.662 37.7352 414.335 37.7352C413.008 37.7352 412.02 38.0594 411.372 38.7074V33.1055C411.372 31.9636 412.36 31.3926 414.335 31.3926Z" fill="black"/>
<path d="M434.248 25.4648C436.223 25.4648 437.211 26.0358 437.211 27.1778V32.7796C436.563 32.1316 435.575 31.8075 434.248 31.8075C432.921 31.8075 431.933 32.1316 431.285 32.7797V27.1778C431.285 26.0359 432.273 25.4648 434.248 25.4648Z" fill="black"/>
<path d="M434.252 26.5527C434.82 26.5649 435.445 26.5841 435.909 26.957C436.203 27.1881 436.188 27.5965 436.18 27.9337V30.9724C435.557 30.6787 434.679 30.6198 434.258 30.6161C433.8 30.6298 432.96 30.6715 432.325 30.8931C432.327 29.7555 432.32 28.6179 432.329 27.4804C432.362 27.0359 432.793 26.7497 433.195 26.6641C433.54 26.5754 433.898 26.5539 434.252 26.5527Z" fill="white"/>
<path d="M454.161 25.4668C456.136 25.4668 457.124 26.0378 457.124 27.1797V32.7815C456.476 32.1335 455.488 31.8094 454.161 31.8094C452.834 31.8094 451.846 32.1336 451.198 32.7816V27.1797C451.198 26.0378 452.186 25.4668 454.161 25.4668Z" fill="black"/>
<path d="M460.056 23.209C460.469 23.209 460.814 23.3446 461.093 23.6169C461.371 23.8893 461.509 24.2221 461.509 24.6154C461.509 25.0089 461.371 25.3474 461.093 25.6298C460.814 25.9123 460.469 26.0534 460.056 26.0534C459.685 26.0534 459.36 25.9122 459.082 25.6297C458.804 25.3474 458.665 25.0089 458.665 24.6155C458.665 24.2221 458.804 23.8893 459.082 23.617C459.36 23.3445 459.685 23.209 460.056 23.209Z" fill="black"/>
<path d="M474.874 5.37109H474.074V40.9266H474.874V5.37109Z" fill="black"/>
<path d="M480 5.37109H479.2V40.9266H480V5.37109Z" fill="black"/>
</g>
<defs>
<clipPath id="clip0_3048_36736">
<rect width="480" height="44.5547" fill="white" transform="translate(0 0.445312)"/>
</clipPath>
</defs>
</svg>
