<svg width="480" height="59" viewBox="0 0 480 59" fill="none" xmlns="http://www.w3.org/2000/svg">
<g clip-path="url(#clip0_3048_36144)">
<rect width="480" height="58.4236" fill="white"/>
<path d="M0 13.3496H480" stroke="black" stroke-width="0.8"/>
<path d="M0 25.2012H480" stroke="black" stroke-width="0.8"/>
<path d="M0 37.0527H480" stroke="black" stroke-width="0.8"/>
<path d="M0 48.9062H480" stroke="black" stroke-width="0.8"/>
<path d="M0 19.182V7.56159C0 6.35792 0.354963 5.39347 1.06489 4.66808C1.7747 3.94274 2.70062 3.58008 3.84261 3.58008C4.49073 3.58008 4.99994 3.76532 5.37031 4.13569C5.74068 4.50606 5.92593 4.99987 5.92593 5.61717V12.0061L5.55556 11.6819C5.30862 11.4659 4.94596 11.2422 4.46756 11.0107C3.98921 10.7792 3.47224 10.6635 2.91674 10.6635C2.23763 10.6635 1.6435 10.9258 1.13422 11.4505C0.625007 11.9752 0.37037 12.6079 0.37037 13.3486C0.37037 14.0894 0.625007 14.7298 1.13422 15.27C1.6435 15.8101 2.23763 16.0802 2.91674 16.0802C3.47224 16.0802 3.98921 15.9722 4.46756 15.7561C4.94596 15.5401 5.30862 15.324 5.55556 15.108L5.92593 14.7376V21.1727C5.92593 21.7592 5.74074 22.2453 5.37037 22.6311C5 23.0169 4.49073 23.2098 3.84267 23.2098C2.70062 23.2098 1.7747 22.8394 1.06483 22.0987C0.354963 21.3579 0 20.3858 0 19.1819V19.182Z" fill="black"/>
<path d="M26.6671 33.4434C28.6424 33.4434 29.63 34.0143 29.63 35.1563V40.7581C28.9818 40.1101 27.9942 39.786 26.6671 39.786C25.3399 39.786 24.3522 40.1101 23.7041 40.7582V35.1563C23.7041 34.0144 24.6918 33.4434 26.6671 33.4434Z" fill="black"/>
<path d="M38.5186 27.5176C40.4939 27.5176 41.4816 28.0885 41.4816 29.2305V34.8323C40.8334 34.1843 39.8458 33.8602 38.5186 33.8602C37.1915 33.8602 36.2038 34.1844 35.5557 34.8324V29.2305C35.5557 28.0886 36.5433 27.5176 38.5186 27.5176Z" fill="black"/>
<path d="M50.3702 21.5918C52.3455 21.5918 53.3332 22.1628 53.3332 23.3047V28.9065C52.685 28.2585 51.6974 27.9344 50.3702 27.9344C49.043 27.9344 48.0553 28.2586 47.4072 28.9066V23.3047C47.4072 22.1628 48.3949 21.5918 50.3702 21.5918Z" fill="black"/>
<path d="M78.5186 21.5918C80.4939 21.5918 81.4816 22.1628 81.4816 23.3047V28.9065C80.8334 28.2585 79.8458 27.9344 78.5186 27.9344C77.1915 27.9344 76.2038 28.2586 75.5557 28.9066V23.3047C75.5557 22.1628 76.5433 21.5918 78.5186 21.5918Z" fill="black"/>
<path d="M90.3702 21.5918C92.3455 21.5918 93.3332 22.1628 93.3332 23.3047V28.9065C92.685 28.2585 91.6974 27.9344 90.3702 27.9344C89.043 27.9344 88.0553 28.2586 87.4072 28.9066V23.3047C87.4072 22.1628 88.3949 21.5918 90.3702 21.5918Z" fill="black"/>
<path d="M102.222 21.5918C104.197 21.5918 105.185 22.1628 105.185 23.3047V28.9065C104.537 28.2585 103.549 27.9344 102.222 27.9344C100.895 27.9344 99.9069 28.2586 99.2588 28.9066V23.3047C99.2588 22.1628 100.246 21.5918 102.222 21.5918Z" fill="black"/>
<path d="M130.37 27.5176C132.345 27.5176 133.333 28.0885 133.333 29.2305V34.8323C132.685 34.1843 131.697 33.8602 130.37 33.8602C129.043 33.8602 128.055 34.1844 127.407 34.8324V29.2305C127.407 28.0886 128.395 27.5176 130.37 27.5176Z" fill="black"/>
<path d="M136.265 29.7051C136.678 29.7051 137.023 29.8407 137.302 30.113C137.58 30.3854 137.718 30.7182 137.718 31.1115C137.718 31.505 137.58 31.8434 137.302 32.1259C137.023 32.4084 136.678 32.5495 136.265 32.5495C135.894 32.5495 135.569 32.4083 135.291 32.1258C135.013 31.8435 134.874 31.505 134.874 31.1116C134.874 30.7182 135.013 30.3854 135.291 30.1131C135.569 29.8406 135.894 29.7051 136.265 29.7051Z" fill="black"/>
<path d="M157.037 21.5918C159.012 21.5918 160 22.1628 160 23.3047V28.9065C159.352 28.2585 158.364 27.9344 157.037 27.9344C155.71 27.9344 154.722 28.2586 154.074 28.9066V23.3047C154.074 22.1628 155.062 21.5918 157.037 21.5918Z" fill="black"/>
<path d="M162.932 19.334C163.345 19.334 163.69 19.4696 163.969 19.7419C164.247 20.0143 164.385 20.3471 164.385 20.7404C164.385 21.1339 164.247 21.4724 163.969 21.7548C163.69 22.0373 163.345 22.1784 162.932 22.1784C162.561 22.1784 162.236 22.0372 161.958 21.7547C161.68 21.4724 161.541 21.1339 161.541 20.7405C161.541 20.3471 161.68 20.0143 161.958 19.742C162.236 19.4695 162.561 19.334 162.932 19.334Z" fill="black"/>
<path d="M182.252 13.3496H181.452V48.9052H182.252V13.3496Z" fill="black"/>
<path d="M202.281 21.5918C204.257 21.5918 205.244 22.1628 205.244 23.3047V28.9065C204.596 28.2585 203.608 27.9344 202.281 27.9344C200.954 27.9344 199.966 28.2586 199.318 28.9066V23.3047C199.318 22.1628 200.306 21.5918 202.281 21.5918Z" fill="black"/>
<path d="M214.133 21.5918C216.108 21.5918 217.096 22.1628 217.096 23.3047V28.9065C216.448 28.2585 215.46 27.9344 214.133 27.9344C212.806 27.9344 211.818 28.2586 211.17 28.9066V23.3047C211.17 22.1628 212.158 21.5918 214.133 21.5918Z" fill="black"/>
<path d="M225.985 21.5918C227.961 21.5918 228.948 22.1628 228.948 23.3047V28.9065C228.3 28.2585 227.313 27.9344 225.985 27.9344C224.658 27.9344 223.671 28.2586 223.022 28.9066V23.3047C223.022 22.1628 224.01 21.5918 225.985 21.5918Z" fill="black"/>
<path d="M254.133 27.5176C256.108 27.5176 257.096 28.0885 257.096 29.2305V34.8323C256.448 34.1843 255.46 33.8602 254.133 33.8602C252.806 33.8602 251.818 34.1844 251.17 34.8324V29.2305C251.17 28.0886 252.158 27.5176 254.133 27.5176Z" fill="black"/>
<path d="M277.837 33.4434C279.812 33.4434 280.8 34.0143 280.8 35.1563V40.7581C280.152 40.1101 279.164 39.786 277.837 39.786C276.51 39.786 275.522 40.1101 274.874 40.7582V35.1563C274.874 34.0144 275.862 33.4434 277.837 33.4434Z" fill="black"/>
<path d="M299.378 31.127H298.578V40.3778H299.378V31.127Z" fill="black"/>
<path d="M301.541 27.5176C303.516 27.5176 304.504 28.0885 304.504 29.2305V34.8323C303.856 34.1843 302.868 33.8602 301.541 33.8602C300.214 33.8602 299.226 34.1844 298.578 34.8324V29.2305C298.578 28.0886 299.566 27.5176 301.541 27.5176Z" fill="black"/>
<path d="M307.467 33.4434C309.442 33.4434 310.43 34.0143 310.43 35.1563V40.7581C309.782 40.1101 308.794 39.786 307.467 39.786C306.14 39.786 305.152 40.1101 304.504 40.7582V35.1563C304.504 34.0144 305.492 33.4434 307.467 33.4434Z" fill="black"/>
<path d="M298.863 7.42364C298.589 7.45446 298.589 7.45446 298.578 7.23508L302.179 0.810074C302.447 0.384474 302.804 0 303.25 0C303.563 0 304.098 0.0749037 304.634 0.461807C305.08 0.771318 305.155 1.15822 305.155 1.46773C305.155 1.69985 305.125 2.12551 304.678 2.51236L298.863 7.42364Z" fill="black"/>
<path d="M331.17 27.5176C333.145 27.5176 334.133 28.0885 334.133 29.2305V34.8323C333.485 34.1843 332.497 33.8602 331.17 33.8602C329.843 33.8602 328.855 34.1844 328.207 34.8324V29.2305C328.207 28.0886 329.195 27.5176 331.17 27.5176Z" fill="black"/>
<path d="M331.174 28.6055C331.742 28.6177 332.367 28.6369 332.831 29.0097C333.125 29.2408 333.11 29.6493 333.102 29.9864V33.0251C332.479 32.7315 331.601 32.6726 331.18 32.6689C330.722 32.6825 329.882 32.7243 329.247 32.9459C329.249 31.8083 329.242 30.6706 329.251 29.5331C329.284 29.0887 329.715 28.8024 330.117 28.7169C330.462 28.6281 330.82 28.6067 331.174 28.6055Z" fill="white"/>
<path d="M354.596 29.3312C355.923 29.3312 356.649 29.3157 356.772 29.2849C357.112 29.1923 357.282 28.9762 357.282 28.6367H357.837V34.4237C357.837 34.5781 357.76 34.6707 357.606 34.7015C357.297 34.7324 356.34 34.7478 354.735 34.7478C353.315 34.7478 352.451 34.7324 352.143 34.7015C351.988 34.7015 351.911 34.6244 351.911 34.4701V29.6089C351.911 29.3929 351.988 29.2849 352.143 29.2849H352.282C352.436 29.3157 353.207 29.3311 354.596 29.3311L354.596 29.3312Z" fill="black"/>
<path d="M355.105 21.4219C355.908 21.4219 356.563 21.5685 357.073 21.8616C357.582 22.155 357.837 22.5947 357.837 23.1812V28.8756H357.281C357.281 28.2274 357.127 27.7413 356.818 27.4172C356.509 27.0932 355.938 26.9311 355.105 26.9311C354.025 26.9311 353.13 27.178 352.42 27.6719V23.1811C352.42 22.0084 353.315 21.4219 355.105 21.4219Z" fill="black"/>
<path d="M360.769 29.7051C361.181 29.7051 361.527 29.8407 361.806 30.113C362.084 30.3854 362.222 30.7182 362.222 31.1115C362.222 31.505 362.084 31.8434 361.806 32.1259C361.527 32.4084 361.181 32.5495 360.769 32.5495C360.398 32.5495 360.073 32.4083 359.795 32.1258C359.516 31.8435 359.378 31.505 359.378 31.1116C359.378 30.7182 359.516 30.3854 359.795 30.1131C360.073 29.8406 360.398 29.7051 360.769 29.7051Z" fill="black"/>
<path d="M360.769 19.334C361.181 19.334 361.527 19.4696 361.806 19.7419C362.084 20.0143 362.222 20.3471 362.222 20.7404C362.222 21.1339 362.084 21.4724 361.806 21.7548C361.527 22.0373 361.181 22.1784 360.769 22.1784C360.398 22.1784 360.073 22.0372 359.795 21.7547C359.516 21.4724 359.378 21.1339 359.378 20.7405C359.378 20.3471 359.516 20.0143 359.795 19.742C360.073 19.4695 360.398 19.334 360.769 19.334Z" fill="black"/>
<path d="M379.378 13.3496H378.578V48.9052H379.378V13.3496Z" fill="black"/>
<path d="M384.504 13.3496H383.704V48.9052H384.504V13.3496Z" fill="black"/>
</g>
<defs>
<clipPath id="clip0_3048_36144">
<rect width="480" height="58.4236" fill="white"/>
</clipPath>
</defs>
</svg>
